<?xml version="1.0" standalone="no"?><!DOCTYPE svg PUBLIC "-//W3C//DTD SVG 1.1//EN" "http://www.w3.org/Graphics/SVG/1.1/DTD/svg11.dtd"><svg t="1699686110308" class="icon" viewBox="0 0 1024 1024" version="1.1" xmlns="http://www.w3.org/2000/svg" p-id="4403" xmlns:xlink="http://www.w3.org/1999/xlink" width="200" height="200"><path d="M240 448h-96c-35.2 0-64 28.8-64 64v352c0 35.2 28.8 64 64 64h96c35.2 0 64-28.8 64-64V512c0-35.2-28.8-64-64-64z m0 415.9l-0.1 0.1h-95.8l-0.1-0.1V512.1l0.1-0.1h95.8l0.1 0.1v351.8zM880 320h-96c-35.2 0-64 28.8-64 64v480c0 35.2 28.8 64 64 64h96c35.2 0 64-28.8 64-64V384c0-35.2-28.8-64-64-64z m0 543.9l-95.9 0.1-0.1-0.1V384.1l0.1-0.1h95.8l0.1 0.1v479.8zM560 96h-96c-35.2 0-64 28.8-64 64v704c0 35.2 28.8 64 64 64h96c35.2 0 64-28.8 64-64V160c0-35.2-28.8-64-64-64z m0 767.9l-95.9 0.1-0.1-0.1V160.1l0.1-0.1h95.8l0.1 0.1v703.8z" fill="#1875F0" p-id="4404"></path></svg>