<?xml version="1.0" standalone="no"?><!DOCTYPE svg PUBLIC "-//W3C//DTD SVG 1.1//EN" "http://www.w3.org/Graphics/SVG/1.1/DTD/svg11.dtd"><svg t="1699691604052" class="icon" viewBox="0 0 1024 1024" version="1.1" xmlns="http://www.w3.org/2000/svg" p-id="10790" xmlns:xlink="http://www.w3.org/1999/xlink" width="200" height="200"><path d="M346.9 496.4c0 33 26.8 59.8 59.8 59.8h210.4c15.8 0 28.7 12.9 28.7 28.7s-12.9 28.7-28.7 28.7H406.7c-2 0-4 0.4-5.9 1.2-3.8 1.6-6.8 4.6-8.4 8.4-1.6 3.8-1.6 8.1 0 11.9 0.8 1.9 1.9 3.6 3.4 5.1l59.5 59.5c3 3 7 4.6 11 4.6s8-1.5 11-4.6c6.1-6.1 6.1-15.9 0-22l-32.9-32.9h172.9c33 0 59.8-26.8 59.8-59.8s-26.8-59.8-59.8-59.8H406.7c-15.8 0-28.7-12.9-28.7-28.7s12.9-28.7 28.7-28.7h210.4c2 0 4-0.4 5.9-1.2 3.8-1.6 6.8-4.6 8.4-8.4 1.6-3.8 1.6-8.1 0-11.9-0.8-1.9-1.9-3.6-3.4-5.1l-59.5-59.5c-6.1-6.1-15.9-6.1-22 0s-6.1 15.9 0 22l32.9 32.9H406.7c-33-0.1-59.8 26.8-59.8 59.8zM666.9 272.7c97.7 55.7 158.4 160 158.4 271.9 0 0.4-0.1 1.8-0.1 2.2 0 8.4 6.6 14.7 15 15.1h0.6c8.1 0 15-6.7 15.6-14.9 0-0.4 0.1-1.8 0.1-2.2 0-123.2-66.7-237.8-174.1-299.1-7.4-4.2-17-1.7-21.2 5.8-4.3 7.5-1.7 17 5.7 21.2zM670 815c-96.2 56.4-219.8 56.4-316 0-7.4-4.3-17-1.8-21.3 5.6-4.3 7.4-1.9 16.9 5.6 21.3 52.9 31 112.9 47.4 173.7 47.4s120.9-16.4 173.7-47.4c7.4-4.4 9.9-13.9 5.6-21.3-4.3-7.5-13.9-9.9-21.3-5.6zM183.1 561.3c8.6 0 15.5-7.9 15.5-16.5 0-112.1 60.7-216.3 158.4-272.1 7.5-4.3 10.1-13.8 5.8-21.2-4.3-7.5-13.8-10-21.2-5.8-107.4 61.3-174.1 175.9-174 301 0 8.6 7 14.6 15.5 14.6zM511.9 297.3c44.9 0 81.3-36.5 81.3-81.3s-36.5-81.3-81.3-81.3-81.3 36.5-81.3 81.3 36.5 81.3 81.3 81.3z m0-131.6c27.7 0 50.2 22.5 50.2 50.2s-22.5 50.2-50.2 50.2c-27.7 0-50.2-22.5-50.2-50.2s22.5-50.2 50.2-50.2zM248.3 630.6c-21-5.6-42.9-2.7-61.7 8.1-18.8 10.9-32.3 28.4-37.9 49.4-5.6 21-2.7 42.9 8.1 61.7 15.1 26.1 42.5 40.6 70.6 40.6 13.8 0 27.8-3.5 40.5-10.9 38.8-22.4 52.2-72.3 29.8-111.1-11-18.7-28.6-32.1-49.4-37.8z m4 122.1c-24 13.8-54.7 5.6-68.6-18.4-6.7-11.6-8.5-25.1-5-38.1 3.5-12.9 11.8-23.8 23.4-30.5 7.7-4.5 16.3-6.7 25-6.7 4.4 0 8.7 0.6 13.1 1.7 13 3.5 23.8 11.8 30.5 23.4 13.7 24 5.5 54.7-18.4 68.6zM875.4 688.2c-5.6-21-19.1-38.5-37.9-49.4-18.8-10.9-40.7-13.7-61.7-8.1s-38.5 19.1-49.4 37.9c-22.4 38.8-9.1 88.7 29.8 111.1 12.8 7.4 26.7 10.9 40.5 10.9 28.1 0 55.5-14.6 70.6-40.6 10.7-18.9 13.7-40.9 8.1-61.8z m-35.1 46.1c-6.7 11.6-17.5 19.9-30.5 23.4s-26.5 1.7-38.1-5c-24-13.9-32.2-44.6-18.4-68.6 6.7-11.6 17.5-19.9 30.5-23.4 4.3-1.2 8.7-1.7 13.1-1.7 8.7 0 17.3 2.3 25 6.7 11.6 6.7 19.9 17.5 23.4 30.5s1.7 26.5-5 38.1z" fill="#71AEFF" p-id="10791"></path></svg>