<?xml version="1.0" standalone="no"?><!DOCTYPE svg PUBLIC "-//W3C//DTD SVG 1.1//EN" "http://www.w3.org/Graphics/SVG/1.1/DTD/svg11.dtd"><svg t="1699691543030" class="icon" viewBox="0 0 1024 1024" version="1.1" xmlns="http://www.w3.org/2000/svg" p-id="9780" xmlns:xlink="http://www.w3.org/1999/xlink" width="200" height="200"><path d="M853.333333 521.481481c0-73.576296-31.004444-153.694815-73.291852-213.807407a29.961481 29.961481 0 0 0-42.382222-7.111111 31.478519 31.478519 0 0 0-6.921481 43.33037C765.534815 393.386667 796.444444 460.98963 796.444444 521.481481s-30.90963 109.131852-65.706666 158.530371a31.383704 31.383704 0 0 0 6.921481 43.33037 29.961481 29.961481 0 0 0 42.382222-7.111111C822.328889 656.213333 853.333333 595.057778 853.333333 521.481481zM283.306667 300.657778a29.866667 29.866667 0 0 0-42.382223 7.111111A388.740741 388.740741 0 0 0 170.666667 521.481481c0 73.576296 28.444444 134.637037 70.162963 194.74963a29.961481 29.961481 0 0 0 42.382222 7.111111 31.478519 31.478519 0 0 0 6.921481-43.33037C255.431111 630.613333 227.555556 582.068148 227.555556 521.481481s27.875556-128.18963 62.672592-177.588148a31.478519 31.478519 0 0 0-6.921481-43.33037z" fill="#0097FF" p-id="9781"></path><path d="M833.422222 150.281481a29.866667 29.866667 0 0 0-42.856296-2.844444 31.478519 31.478519 0 0 0-2.844445 43.804444C864.237037 280.272593 910.222222 384.663704 910.222222 502.518519a522.24 522.24 0 0 1-122.500741 330.334814 31.478519 31.478519 0 0 0 2.844445 43.804445 29.961481 29.961481 0 0 0 42.856296-2.844445 556.278519 556.278519 0 0 0 0-723.531852zM113.777778 502.518519c0-117.76 45.985185-222.151111 122.405926-311.277038a31.478519 31.478519 0 0 0-2.844445-43.804444 29.866667 29.866667 0 0 0-42.856296 2.844444 556.468148 556.468148 0 0 0 0 723.531852 29.866667 29.866667 0 0 0 42.856296 2.844445 31.478519 31.478519 0 0 0 2.844445-43.804445C159.762963 743.727407 106.666667 625.777778 113.777778 502.518519zM513.517037 294.779259C396.231111 294.779259 303.407407 382.672593 303.407407 502.518519c0 61.44 23.324444 129.896296 68.361482 171.14074a29.866667 29.866667 0 0 0 42.856296-2.465185 31.478519 31.478519 0 0 0-2.37037-43.804444C380.112593 597.902222 360.296296 546.322963 360.296296 502.518519a151.703704 151.703704 0 1 1 303.407408 0c0 85.333333-66.37037 164.693333-150.186667 164.693333H502.518519a30.435556 30.435556 0 0 0-28.444445 20.764444 153.220741 153.220741 0 0 1-34.322963 56.225185 31.478519 31.478519 0 0 0 0.568889 43.89926 29.866667 29.866667 0 0 0 43.235556-0.663704 215.608889 215.608889 0 0 0 39.917037-58.500741C636.017778 723.721481 720.592593 618.856296 720.592593 502.518519c0-119.751111-89.884444-207.644444-207.170371-207.644445z" fill="#0097FF" p-id="9782"></path></svg>